# xmcd
#
# Track frame offsets: 
#        150
#        13435
#        30240
#        45774
#        66175
#        87423
#        100857
#        110964
#        125735
#        146353
#        164988
#        181227
#        190877
#
# Disc length: 2751 seconds
#
# Revision: 0
# Processed by: cddbd v1.5.2PL0 Copyright (c) Steve Scherf et al.
# Submitted via: ExactAudioCopy v0.99pb4
#
DISCID=b70abd0d
DTITLE=Paul Westerberg - A Lot of Songs- Not for Sale disc 2
DYEAR=1996
DGENRE=Ambient
TTITLE0=Waitress in the Sky
TTITLE1=Merry Go Round
TTITLE2=Angels Walk
TTITLE3=Love Untold
TTITLE4=Talent Show
TTITLE5=Can't Hardly Wait
TTITLE6=Color Me Impressed
TTITLE7=Alex Chilton
TTITLE8=Little Mascara
TTITLE9=Swinging Party
TTITLE10=Androgynous
TTITLE11=I'm in Trouble
TTITLE12=IOU
EXTD=
EXTT0=
EXTT1=
EXTT2=
EXTT3=
EXTT4=
EXTT5=
EXTT6=
EXTT7=
EXTT8=
EXTT9=
EXTT10=
EXTT11=
EXTT12=
PLAYORDER=
